name Walk8.mot
datacolumns 19
datarows 27
range 1.84500000 1.97500000
endheader

                time	   L_ground_force_vx	   L_ground_force_vy	   L_ground_force_vz	   L_ground_force_px	   L_ground_force_py	   L_ground_force_pz	   R_ground_force_vx	   R_ground_force_vy	   R_ground_force_vz	   R_ground_force_px	   R_ground_force_py	   R_ground_force_pz	   L_ground_torque_x	   L_ground_torque_y	   L_ground_torque_z	   R_ground_torque_x	   R_ground_torque_y	   R_ground_torque_z	
          1.84500000	         -0.00000000	         -0.00000000	          0.00000000	          0.00000000	          0.00000000	          0.00000000	        -27.93566055	        534.71498762	        -42.74323215	          0.26793491	          0.00000000	          0.09307583	          0.00000000	         -0.00000000	          0.00000000	          0.00000000	         -0.56011340	          0.00000000	
          1.85000000	          0.00000000	          0.00000000	         -0.00000000	          0.00000000	          0.00000000	          0.00000000	        -25.93892384	        527.08306925	        -42.49887169	          0.27040919	          0.00000000	          0.09361716	          0.00000000	          0.00000000	          0.00000000	          0.00000000	         -0.57983983	          0.00000000	
          1.85500000	          0.00000000	          0.00000000	         -0.00000000	         -0.00000000	          0.00000000	         -0.00000000	        -24.13446011	        520.14996174	        -42.14581398	          0.27284976	          0.00000000	          0.09410007	          0.00000000	          0.00000000	          0.00000000	          0.00000000	         -0.59119304	          0.00000000	
          1.86000000	          0.00000000	          0.00000000	         -0.00000000	         -0.00000000	          0.00000000	         -0.00000000	        -22.43712697	        514.17364301	        -41.62524410	          0.27545752	          0.00000000	          0.09469111	          0.00000000	          0.00000000	          0.00000000	          0.00000000	         -0.59898568	          0.00000000	
          1.86500000	         -0.00000000	         -0.00000000	          0.00000000	          0.00000000	          0.00000000	          0.00000000	        -20.78878525	        509.21153708	        -40.93418511	          0.27818040	          0.00000000	          0.09542900	          0.00000000	         -0.00000000	          0.00000000	          0.00000000	         -0.61741599	          0.00000000	
          1.87000000	         -0.00000000	         -0.00000000	          0.00000000	          0.00000000	          0.00000000	          0.00000000	        -19.16890444	        504.56018586	        -40.25582270	          0.28049620	          0.00000000	          0.09595622	          0.00000000	         -0.00000000	          0.00000000	          0.00000000	         -0.63110869	          0.00000000	
          1.87500000	         -0.00000000	         -0.00000000	          0.00000000	          0.00000000	          0.00000000	          0.00000000	        -17.55768807	        500.10272863	        -39.62183763	          0.28228546	          0.00000000	          0.09617336	          0.00000000	         -0.00000000	          0.00000000	          0.00000000	         -0.60379643	          0.00000000	
          1.88000000	          0.00000000	          0.00000000	         -0.00000000	         -0.00000000	          0.00000000	         -0.00000000	        -15.82161215	        496.24927593	        -38.99081013	          0.28410020	          0.00000000	          0.09636308	          0.00000000	          0.00000000	          0.00000000	          0.00000000	         -0.57153736	          0.00000000	
          1.88500000	          0.00000000	          0.00000000	         -0.00000000	         -0.00000000	          0.00000000	         -0.00000000	        -13.96879255	        493.21098000	        -38.38132895	          0.28603219	          0.00000000	          0.09665828	          0.00000000	          0.00000000	          0.00000000	          0.00000000	         -0.55671663	          0.00000000	
          1.89000000	         -0.00000000	          0.00000000	         -0.00000000	         -0.00000000	          0.00000000	         -0.00000000	        -12.07838027	        491.00382625	        -37.86875106	          0.28766306	          0.00000000	          0.09693179	          0.00000000	         -0.00000000	          0.00000000	          0.00000000	         -0.54586182	          0.00000000	
          1.89500000	         -0.00000000	         -0.00000000	          0.00000000	          0.00000000	          0.00000000	          0.00000000	        -10.09748214	        489.66862465	        -37.52173943	          0.28927365	          0.00000000	          0.09727474	          0.00000000	         -0.00000000	          0.00000000	          0.00000000	         -0.50202249	          0.00000000	
          1.90000000	         -0.00000000	         -0.00000000	          0.00000000	          0.00000000	          0.00000000	          0.00000000	         -8.05348154	        489.09516614	        -37.26221020	          0.29077529	          0.00000000	          0.09756230	          0.00000000	         -0.00000000	          0.00000000	          0.00000000	         -0.47145776	          0.00000000	
          1.90500000	          0.00000000	          0.00000000	          0.00000000	          0.00000000	          0.00000000	          0.00000000	         -6.06231287	        489.23857472	        -37.09045698	          0.29204901	          0.00000000	          0.09782022	          0.00000000	          0.00000000	          0.00000000	          0.00000000	         -0.45646285	          0.00000000	
          1.91000000	          0.00000000	          0.00000000	         -0.00000000	         -0.00000000	          0.00000000	         -0.00000000	         -4.14977003	        490.13413728	        -37.13328621	          0.29308589	          0.00000000	          0.09789800	          0.00000000	          0.00000000	          0.00000000	          0.00000000	         -0.43530579	          0.00000000	
          1.91500000	          0.00000000	          0.00000000	         -0.00000000	         -0.00000000	          0.00000000	         -0.00000000	         -2.27738163	        491.76052037	        -37.42217035	          0.29402260	          0.00000000	          0.09788437	          0.00000000	          0.00000000	          0.00000000	          0.00000000	         -0.39307492	          0.00000000	
          1.92000000	         -0.00000000	         -0.00000000	          0.00000000	         -0.00000000	          0.00000000	         -0.00000000	         -0.48614959	        494.08589082	        -37.91374197	          0.29499511	          0.00000000	          0.09808223	          0.00000000	         -0.00000000	          0.00000000	          0.00000000	         -0.36126565	          0.00000000	
          1.92500000	         -0.00000000	         -0.00000000	          0.00000000	          0.00000000	          0.00000000	          0.00000000	          1.21629880	        497.18956686	        -38.43540341	          0.29591986	          0.00000000	          0.09838240	          0.00000000	         -0.00000000	          0.00000000	          0.00000000	         -0.34793879	          0.00000000	
          1.93000000	         -0.00000000	         -0.00000000	          0.00000000	          0.00000000	          0.00000000	          0.00000000	          2.89228031	        500.79885657	        -38.97897307	          0.29691705	          0.00000000	          0.09851840	          0.00000000	         -0.00000000	          0.00000000	          0.00000000	         -0.31693259	          0.00000000	
          1.93500000	          0.00000000	          0.00000000	         -0.00000000	         -0.00000000	          0.00000000	         -0.00000000	          4.56971248	        504.80975472	        -39.58569626	          0.29787197	          0.00000000	          0.09868351	          0.00000000	          0.00000000	          0.00000000	          0.00000000	         -0.26152733	          0.00000000	
          1.94000000	          0.00000000	          0.00000000	         -0.00000000	         -0.00000000	          0.00000000	         -0.00000000	          6.23646365	        509.44899894	        -40.20623531	          0.29891754	          0.00000000	          0.09898347	          0.00000000	          0.00000000	          0.00000000	          0.00000000	         -0.22361972	          0.00000000	
          1.94500000	          0.00000000	          0.00000000	         -0.00000000	         -0.00000000	          0.00000000	         -0.00000000	          7.79991392	        514.23472399	        -40.80272222	          0.29969805	          0.00000000	          0.09915644	          0.00000000	         -0.00000000	          0.00000000	          0.00000000	         -0.20710436	          0.00000000	
          1.95000000	         -0.00000000	         -0.00000000	          0.00000000	          0.00000000	          0.00000000	          0.00000000	          9.29623977	        519.44055178	        -41.27355278	          0.30031303	          0.00000000	          0.09920866	          0.00000000	         -0.00000000	          0.00000000	          0.00000000	         -0.16787014	          0.00000000	
          1.95500000	         -0.00000000	         -0.00000000	          0.00000000	          0.00000000	          0.00000000	          0.00000000	         10.75019208	        525.21371515	        -41.53889072	          0.30119345	          0.00000000	          0.09930814	          0.00000000	         -0.00000000	          0.00000000	          0.00000000	         -0.11145167	          0.00000000	
          1.96000000	          0.00000000	          0.00000000	          0.00000000	          0.00000000	          0.00000000	          0.00000000	         12.16514177	        530.97226747	        -41.69762304	          0.30212447	          0.00000000	          0.09933456	          0.00000000	          0.00000000	          0.00000000	          0.00000000	         -0.05407895	          0.00000000	
          1.96500000	          0.00000000	          0.00000000	         -0.00000000	         -0.00000000	          0.00000000	         -0.00000000	         13.56749171	        536.91541601	        -41.89942203	          0.30296374	          0.00000000	          0.09935714	          0.00000000	          0.00000000	          0.00000000	          0.00000000	         -0.01125555	          0.00000000	
          1.97000000	          0.00000000	          0.00000000	         -0.00000000	         -0.00000000	          0.00000000	         -0.00000000	         14.91945666	        543.32159909	        -42.21512292	          0.30370223	          0.00000000	          0.09941034	          0.00000000	          0.00000000	          0.00000000	          0.00000000	          0.02983830	          0.00000000	
          1.97500000	         -0.00000000	         -0.00000000	          0.00000000	         -0.00000000	          0.00000000	         -0.00000000	         16.32062216	        549.78841325	        -42.55518142	          0.30415704	          0.00000000	          0.09932105	          0.00000000	         -0.00000000	          0.00000000	          0.00000000	          0.09792931	          0.00000000	
